<svg width="40" height="40" viewBox="0 0 40 40" fill="none" xmlns="http://www.w3.org/2000/svg">
<path d="M9.26004 29.9998H30.74C32.3119 29.9998 33.8194 29.3754 34.9308 28.264C36.0423 27.1525 36.6667 25.645 36.6667 24.0732V19.9998C36.6667 19.1158 36.3155 18.2679 35.6904 17.6428C35.0653 17.0177 34.2174 16.6665 33.3334 16.6665C32.4493 16.6665 31.6015 17.0177 30.9764 17.6428C30.3512 18.2679 30 19.1158 30 19.9998V21.9998C30 22.3535 29.8596 22.6926 29.6095 22.9426C29.3595 23.1927 29.0203 23.3332 28.6667 23.3332H11.3334C10.9798 23.3332 10.6406 23.1927 10.3906 22.9426C10.1405 22.6926 10 22.3535 10 21.9998V19.9998C10 19.1158 9.64885 18.2679 9.02373 17.6428C8.39861 17.0177 7.55076 16.6665 6.66671 16.6665C5.78265 16.6665 4.93481 17.0177 4.30968 17.6428C3.68456 18.2679 3.33337 19.1158 3.33337 19.9998V24.0732C3.33337 25.645 3.95779 27.1525 5.06925 28.264C6.18072 29.3754 7.68819 29.9998 9.26004 29.9998Z" stroke="#253238" stroke-width="2.5"/>
<path d="M33.3334 16.6666C33.3334 15.1166 33.3334 14.3433 33.2051 13.6999C32.9479 12.4066 32.3129 11.2186 31.3805 10.2862C30.4481 9.35374 29.2601 8.71878 27.9667 8.46159C27.3234 8.33325 26.5501 8.33325 25.0001 8.33325H15.0001C13.4501 8.33325 12.6767 8.33325 12.0334 8.46159C10.7401 8.71878 9.55209 9.35374 8.61967 10.2862C7.68724 11.2186 7.05228 12.4066 6.79508 13.6999C6.66675 14.3433 6.66675 15.1166 6.66675 16.6666" stroke="#253238" stroke-width="2.5"/>
<path d="M33.3334 31.6667V30M6.66675 31.6667V30" stroke="#253238" stroke-width="2.5" stroke-linecap="round"/>
</svg>
